<?xml version="1.0"?>
<!DOCTYPE svg PUBLIC "-//W3C//DTD SVG 1.0//EN" "http://www.w3.org/TR/2001/REC-SVG-20010904/DTD/svg10.dtd">
<svg xmlns="http://www.w3.org/2000/svg" xmlns:xlink="http://www.w3.org/1999/xlink" viewBox="0 0 256 256">
<defs>
    <linearGradient id="handleShadow" x1="50%" x2="50%" y1="0%" y2="100%">
      <stop offset="0%" style="stop-color:#000000;stop-opacity:0" />
      <stop offset="56%" style="stop-color:#000000;stop-opacity:0.12;"/>
      <stop offset="100%" style="stop-color:#000000;stop-opacity:0.50" />
    </linearGradient>
    <linearGradient id="handleFill" x1="0%" x2="100%" y1="0%" y2="100%">
      <stop offset="0%" style="stop-color:#EBEBEB;stop-opacity:1" />
      <stop offset="100%" style="stop-color:#CECECE;stop-opacity:1" />
    </linearGradient>
    <linearGradient id="slice1Fill" x1="0%" x2="100%" y1="0%" y2="100%">
      <stop offset="0%" style="stop-color:#C2C2C2;stop-opacity:1" />
      <stop offset="100%" style="stop-color:#A2A2A2;stop-opacity:1" />
    </linearGradient>
    <linearGradient id="slice2Fill" x1="0%" x2="100%" y1="0%" y2="100%">
      <stop offset="0%" style="stop-color:#979797;stop-opacity:1" />
      <stop offset="100%" style="stop-color:#6F6F6F;stop-opacity:1" />
    </linearGradient>
    <linearGradient id="slice3Fill" x1="0%" x2="100%" y1="0%" y2="100%">
      <stop offset="0%" style="stop-color:#727272;stop-opacity:1" />
      <stop offset="100%" style="stop-color:#545454;stop-opacity:1" />
    </linearGradient>
    <linearGradient id="prereleaseFill" x1="33.33%" x2="100%" y1="50%" y2="60%">
      <stop offset="0%" style="stop-color:#FFDD00;stop-opacity:0" />
      <stop offset="100%" style="stop-color:#FFDD00;stop-opacity:1" />
    </linearGradient>
    <linearGradient id="logoFill2" x1="25%" x2="75%" y1="0%" y2="100%">
      <stop offset="0%" style="stop-color:#B0B184;stop-opacity:1" />
      <stop offset="100%" style="stop-color:#AE7DB1;stop-opacity:1" />
    </linearGradient>
    <linearGradient id="logoFill" x1="25%" x2="75%" y1="0%" y2="100%">
      <stop offset="0%" style="stop-color:#35E291;stop-opacity:1" />
      <stop offset="100%" style="stop-color:#23A1D2;stop-opacity:1" />
    </linearGradient>
  </defs>
<g>
<path id="pathHandles" fill="url(#handleFill)" d="M 56,70 V 48 c 0,-48 0,-48 48,-48 H 152 c 48,0 48,0 48,48 V 70 h -32 V 32 H 88 V 70 Z"/>
<path id="pathBackSheetShadowLeft" fill="url(#handleShadow)" d="M 56,70 v -32 h 32 v 32 Z"/>
<path id="pathBackSheetShadowRight" fill="url(#handleShadow)" d="M 168,70 v -32 h 32 v 32 Z"/>
</g>
<!-- <clipPath id="baseClip"><path d="M 0,88 V 192 c 0,64 0,64 64,64 h 128 c 64,0 64,0 64,-64 V 88 c 0,-24 0,-24 -24,-24 h -208 c -24,0 -24,0 -24,24 Z" /></clipPath> -->
<clipPath id="baseClip"><path d="M 0,88 V 168 c 0,88 0,88 88,88 H 168 c 88,0 88,0 88,-88 V 88 c 0,-24 0,-24 -24,-24 H 24 c -24,0 -24,0 -24,24 Z" /></clipPath>
<clipPath id="prereleaseClip"><path d="M 3,189 v 3 c 0,61 0,61 61,61 h 128 c 61,0 61,0 61,-61 V 189 Z" /></clipPath>
<g>
<path d="M 0,64 v 70 H 256 v -70 Z" clip-path="url(#baseClip)" fill="url(#slice1Fill)" />
<path d="M 0,186 v 70 H 256 v -70 Z" clip-path="url(#baseClip)" fill="url(#slice3Fill)" />
<!-- <path d="M 0,195 V 256 H 256 V 195 Z" clip-path="url(#prereleaseClip)" fill="url(#prereleaseFill)" /> -->
<path d="M 0,128 v 64 H 256 v -64 Z" clip-path="url(#baseClip)" fill="url(#slice2Fill)" />
</g>
<g>
<clipPath id="zClip"><path d="M 91,107 169,107 169,113 108,201 168,201 168,214 86,214 86,208 147,120 91,120 Z" /></clipPath>
<path d="M 91,107 169,107 169,113 108,201 168,201 168,214 86,214 86,208 147,120 91,120 Z" fill="url(#logoFill)" />
<path d="M 91,107 169,107 169,113 108,201 168,201 168,214 86,214 86,208 147,120 91,120 Z" clip-path="url(#zClip)" stroke="black" stroke-width="4" stroke-opacity="0.15" fill-opacity="0" />
</g>
</svg>
