<?xml version="1.0"?>
<!DOCTYPE svg PUBLIC "-//W3C//DTD SVG 1.0//EN" "http://www.w3.org/TR/2001/REC-SVG-20010904/DTD/svg10.dtd">
<svg xmlns="http://www.w3.org/2000/svg" xmlns:xlink="http://www.w3.org/1999/xlink" viewBox="0 0 256 256">
<defs>
    <linearGradient id="centricShadow" x1="0%" x2="100%" y1="50%" y2="50%">
      <stop offset="0%" style="stop-color:#000000;stop-opacity:0" />
      <stop offset="28%" style="stop-color:#000000;stop-opacity:0.12;"/>
      <stop offset="50%" style="stop-color:#000000;stop-opacity:0.50" />
      <stop offset="72%" style="stop-color:#000000;stop-opacity:0.12" />
      <stop offset="100%" style="stop-color:#000000;stop-opacity:0.0" />
    </linearGradient>
    <linearGradient id="sideShadows" x1="0%" x2="100%" y1="50%" y2="50%">
      <stop offset="0%" style="stop-color:#000000;stop-opacity:0.50" />
      <stop offset="3%" style="stop-color:#000000;stop-opacity:0.12" />
      <stop offset="22%" style="stop-color:#000000;stop-opacity:0" />
      <stop offset="78%" style="stop-color:#000000;stop-opacity:0" />
      <stop offset="97%" style="stop-color:#000000;stop-opacity:0.12" />
      <stop offset="100%" style="stop-color:#000000;stop-opacity:0.50" />
    </linearGradient>
  </defs>
<g>
<path id="pathBackSheet" fill="LightGray" d="M 0,64 v 30 h 256 v -30 Z"/>
<path id="pathBackSheetShadowLeft" fill="url(#centricShadow)" d="M 144,64 v 30 h 80 v -30 Z"/>
<path id="pathBackSheetShadowRight" fill="url(#centricShadow)" d="M 32,64 v 30 h 80 v -30 Z"/>
<path id="pathHandleInside" fill="LightGray" d="M 84,0 v 24 H 172 v -24 Z"/>
<path id="pathHandleInsideShadow" fill="url(#sideShadows)" d="M 84,0 v 24 H 172 v -24 Z"/>
<path id="pathHandles" fill="WhiteSmoke" d="M 60,94 V 24 l 24,-24 H 172 l 24,24 V 94 h -24 V 0 H 84 V 94 Z"/>
<path id="pathFrontSheet" fill="GhostWhite" d="M 0,88 v 120 c 0,48 0,48 48,48 h 160 c 48,0 48,0 48,-48 V 88 Z"/>
</g>
<g>
<clipPath id="cp1"><polygon points="105.184,242 91.2517,181.048 151.333,199.333" /></clipPath>
<polygon points="105.184,242 91.2517,181.048 151.333,199.333" stroke="#00cfdc" stroke-width="16.1088" stroke-opacity="1" fill-opacity="0" clip-path="url(#cp1)" />
<rect x="141.748px" y="137.503px" width="36.5859px" height="36.5859px" transform="translate(160.041,155.796) rotate(10) translate(-160.041,-155.796)" stroke="#ff0073" stroke-width="7.83673" stroke-opacity="1" fill-opacity="0" />
<ellipse cx="95.6054px" cy="140.122px" rx="18.2858px" ry="18.2857px" stroke="#7800fe" stroke-width="7.83673" stroke-opacity="1" fill-opacity="0" />
</g>
</svg>